<svg xmlns="http://www.w3.org/2000/svg" xmlns:xlink="http://www.w3.org/1999/xlink" width="136" height="136" viewBox="0 0 136 136">
  <defs>
    <clipPath id="clip-path">
      <rect id="Rectangle_833" data-name="Rectangle 833" width="136" height="136" rx="12" transform="translate(-0.417 -0.417)" fill="none"/>
    </clipPath>
  </defs>
  <g id="Group_58783" data-name="Group 58783" transform="translate(-0.048 -0.05)">
    <g id="Group_55555" data-name="Group 55555" transform="translate(0.465 0.467)" clip-path="url(#clip-path)">
      <path id="Path_50314" data-name="Path 50314" d="M228.7,190.287c-1.109-.913-2.3-1.747-3.315-2.753q-8.811-8.728-17.541-17.539a3.1,3.1,0,0,0-2.419-1.023c-10.568.036-21.135.023-31.7.022-3.568,0-5-1.422-5-4.966q0-7.694,0-15.387v-1.569c1.889,0,3.644,0,5.4,0,2.476,0,4.953.015,7.428-.018a12.021,12.021,0,0,0,8.345-3.662c.1.423.161.721.231,1.017a3.888,3.888,0,0,0,3.7,3.211,3.938,3.938,0,0,0,4.043-2.977c.427-1.53.763-3.085,1.153-4.626a8.409,8.409,0,0,1,.323-.869h14.988c.448,1.75.882,3.5,1.343,5.236a4.015,4.015,0,0,0,4.888,3.15,3.966,3.966,0,0,0,2.83-4.957c-2.47-10.03-4.942-20.06-7.514-30.064a9.426,9.426,0,0,0-18.223.236c-1.358,5.257-2.649,10.531-3.971,15.8a3.394,3.394,0,0,1-.449,1.1V84.27h1.568c14.989,0,29.979.028,44.968-.028,2.445-.009,4.2.762,5.112,3.1v78.538c-.666,1.584-1.654,2.826-3.486,3.043a22.468,22.468,0,0,1-2.51.072c-1.7.009-3.393,0-5.147,0,0,5.472-.093,10.72.041,15.963.063,2.48-.674,4.273-2.96,5.33Z" transform="translate(-109.376 -54.782)" fill="#9079ca"/>
      <path id="Path_50315" data-name="Path 50315" d="M271.695,184.708H260.721c.66-2.646,1.3-5.2,1.934-7.747.671-2.692,1.349-5.382,2.008-8.077.21-.861.493-1.656,1.556-1.669s1.379.729,1.6,1.613c1.262,5.086,2.548,10.167,3.821,15.25a4.673,4.673,0,0,1,.056.63" transform="translate(-168.826 -108.401)" fill="#9079ca"/>
      <path id="Path_50316" data-name="Path 50316" d="M76.2,5.2c.007-2.434-.715-4.182-2.965-5.2H2.919A6.077,6.077,0,0,0,0,2.919v78.8A4.735,4.735,0,0,0,5.183,84.7c1.96-.134,3.938-.028,5.859-.028a3.579,3.579,0,0,1,.092.471c0,5.438,0,10.875.025,16.313a5.8,5.8,0,0,0,.311,2.07c1.1,2.738,4.458,3.3,6.665,1.1q9.494-9.446,18.934-18.952a3.092,3.092,0,0,1,2.416-1.019c10.567.035,21.131.021,31.7.021,3.594,0,4.978-1.373,4.978-4.942q0-37.263.035-74.533M51.117,48.273H35.841q-3.869,0-5.515,1.153a3.957,3.957,0,0,0-1.652,3.467q0,4.67,7.167,4.666h6.647v6.934H35.841q-6.835,0-10.56-3.018t-3.725-8.583a11.207,11.207,0,0,1,1.932-6.672A10.866,10.866,0,0,1,29.1,42.283a7.5,7.5,0,0,1-3.771-6.976,11.949,11.949,0,0,1,1.932-6.743,12.96,12.96,0,0,1,5.328-4.55,17.271,17.271,0,0,1,7.546-1.627,23.8,23.8,0,0,1,4.879.566,28.82,28.82,0,0,1,5.4,1.744l-2.452,6.364a25.789,25.789,0,0,0-4.171-1.341,16.276,16.276,0,0,0-3.513-.449,8.952,8.952,0,0,0-5.611,1.7,5.462,5.462,0,0,0-2.218,4.574,5.077,5.077,0,0,0,1.935,4.217q1.932,1.534,5.844,1.535H51.117Z" transform="translate(-0.341 -0.343)" fill="#2c1662"/>
    </g>
  </g>
</svg>
